<?xml version="1.0" encoding="UTF-8"?>
<svg xmlns="http://www.w3.org/2000/svg" width="44" height="44" viewBox="0 0 22 22">
  <g stroke="#000000" stroke-width="1.5" stroke-linecap="round" fill="none">
        <path d="M 6 5.9 L 6 5 A 1.5 1.5 0 0 1 7.5 3.5 L 8.4 3.5"></path>
        <path d="M 13.6 3.5 L 14.5 3.5 A 1.5 1.5 0 0 1 16 5 L 16 5.9"></path>
        <path d="M 6 9.1 L 6 10 A 1.5 1.5 0 0 0 7.5 11.5 L 8.4 11.5"></path>
        <path d="M 13.6 11.5 L 14.5 11.5 A 1.5 1.5 0 0 0 16 10 L 16 9.1"></path>
        <line x1="11" y1="11.7" x2="11" y2="13.2"></line>
        <line x1="6.4" y1="14.3" x2="8.4" y2="14.3"></line>
        <line x1="13.6" y1="14.3" x2="15.6" y2="14.3"></line>
      </g>
</svg>
